<svg xmlns="http://www.w3.org/2000/svg" width="32" height="32" fill="none"><rect width="32" height="32" fill="#05B862" rx="4"/><circle cx="16" cy="16" r="11.5" fill="#FAFAFA" stroke="#fff"/><path fill="#04B861" d="M8.063 9h1.195v.185h1.062v.185h1.063v.184h1.062v.185h1.063v.185h1.062v.185h1.063v.184h1.195v.185h.797v.74h.133v.739h1.594v.184h.132v.185h.133v.185h.133v-.185h.133v-.185h.133v-.184h.132v-.185h.133v-.37h.133v-.185h.133v-.184h.133v-.185h.398v.185h.664v.184h.531v.185h.665v.185h.53v.185H24v.554h-.133v.554h-.133v.37h-.132v.37h-.133v.37h-.133v.369h-.133v.554h-.133v.37h-.133v.37h-.132v.369h-.133v.37h-.133v.369h-.133v1.478h.133v1.478h-.133v.185h-.133v.185h-.132v.185h-.133v.184h-.133v.185h-.133v.185h-.133v.185h-.132v.185h-.133v1.478h-.133v2.217h-.133v.74h-.265v-.185h-.399v-.185h-.398v-.185h-.399v-.185h-.265v-.184h-.399v-.185h-.398v-.185h-.266v-.554h-.133v-.74h-.133v-.184h-.398v.184H16.43v.185h-.266v.185h-.133v.37h-.133v.184h-.132v.37h-.133v.185H15.5v.37h-.133v.369h-.133v.185h-.132v.37h-.133V26h-.266v-.185h-.133v-.185h-.133v-.184h-.132v-.37h-.133v-.185h-.133v-.184h-.133v-.37h-.133v-.185h-.132v-.185h-.133v-.37h-.133v-.184h-.133v-.185h-.133v-.37h-.132v-.184h-.266v-.185h-.133v-.185h-.265v-.184h-.266v-.185h-.266v-.185h-.133v-.185h-.265v-.185h-.266v-.184h-.265v-.185h-.133v-.185h-.266v-.185h-.265v-.184h-.266v-.185h-.133v-.185h-.266v-.185h-.265v-.185h-.266v-.184H8.86v-.185h-.265v-.185h-.266v-.185h-.265v-.184H7.93v-.185h-.266v-.185h-.266v-.185h-.265v-.185H7v-1.293h.133v-1.109h.133v-1.108h.132v-1.11h.133v-1.108h.133v-1.109h.133v-.924h.133V9.185h.133V9Zm.93 1.663v.37h-.134v1.108h-.132v1.109h-.133v1.109H8.46v1.108h-.133v.924h-.133v.37h.399v-.185h3.054v-.37h-.132v-.923h-.133v-.74h-.133v-.923h-.133v-.74h-.133v-.924h-.132v-.739h-.133v-.184h-.133v-.185H9.523v-.185h-.53Zm3.054.554v.924h.133v.74h.133v.923h.132v.74h.133v.923h.133v.74h.133v.37h1.062v-.186h2.125v-.184h.133v-.555h.133v-.739h.133v-.74h.133v-.738h.132V12.14h-.133v-.184h-.53v-.185h-1.063v-.185h-1.063v-.185h-1.062v-.185h-.797Zm9.031 1.479v.184h-.133v.37h-.133v.185h-.132v.185h-.133v.184h-.133v.185h-.133v.37h-.133v.184h-.132v.185h-.133v.185h-.133v.185h-.266v-.37h-.132v-.184h-.133v-.185h-.133v-.185h-.133v-.37h-.133v-.184h-1.062v.554h-.133v.739h-.133v.74h-.133v.738h1.993v-.184h2.125v-.37h.132v-.554h.133v-.37h.133v-.37h.133v-.37h.133v-.369h.132v-.37h.133v-.554h-.664v-.184h-.664Zm-4.383 5.174v.184h-1.992v.185h-.133v.185h-.133v.37h-.132v.184h-.133v.185h-.133v.185h-.133v.37h-.133v.184h-.132v.185h-.133v.37h-.133v.184h-.133v.185h-.133v.185h.133v.185h.266v.184h.265v.37h.133v.185h.133v.185h.133v.37h.133v.184h.133v.185h.132v.37h.266v-.185h.133v-.37h.133v-.185h.132v-.37h.133v-.184h.133v-.185h.266v-.185h1.195v-.185h1.062v-1.663h.133v-1.663h.133v-.184h-1.594Zm2.657 0v1.293h-.133v1.848h-.133v1.293h.133v.74h.133v.184h.398v.185h.398V21.38h.133v-1.108h.133v-.185h.133v-.185h.133v-.185h.133v-.184h.132v-.185h.133v-.185h.133v-.185h.133V17.87h-1.992Zm-7.97.184v.185H9.79v.185h.266v.185h.265v.184h.133v.185h.266v.185h.265v.185h.133v.185h.266v.184h.265v.185h.266v.185h.266v-.185h.133v-.37h.132v-.184h.133v-.185h.133v-.185h.133v-.37h.133v-.184h.132v-.185h.133v-.185h-1.86Z"/><circle cx="16" cy="16" r="11.5" stroke="#fff"/></svg>