<svg width="18" height="16" fill="none" xmlns="http://www.w3.org/2000/svg"><path d="M3.976.194c-.73 0-1.318.572-1.347 1.294h1.974c.432 0 .778.346.778.778v1.255a.775.775 0 0 1-.778.778h-1.98v.634h1.98c.432 0 .778.347.778.778V6.96a.775.775 0 0 1-.778.778h-1.98v.634h1.98a.78.78 0 0 1 .778.785v1.242a.775.775 0 0 1-.778.778h-1.98v.634h1.98a.78.78 0 0 1 .778.784v1.249a.775.775 0 0 1-.778.778H2.63c.026.725.615 1.3 1.347 1.3h11.806c.748 0 1.353-.604 1.353-1.353V1.547c0-.748-.605-1.353-1.353-1.353H3.976Zm-2.51 1.83a.484.484 0 0 0-.485.484v.771c0 .268.217.484.484.484h2.798a.484.484 0 0 0 .484-.484v-.77a.484.484 0 0 0-.484-.485H1.465Zm5.38 1.635h4.098c.175 0 .314.14.314.313v.478c0 .174-.14.313-.314.313H6.845a.313.313 0 0 1-.313-.313v-.478c0-.174.14-.313.313-.313Zm-5.38 1.804a.484.484 0 0 0-.485.484v.771c0 .267.217.484.484.484h2.798a.484.484 0 0 0 .484-.484v-.771a.484.484 0 0 0-.484-.484H1.465Zm5.38.765h7.949c.174 0 .314.14.314.314v.47c0 .175-.14.314-.314.314h-7.95a.313.313 0 0 1-.313-.314v-.47c0-.175.14-.314.313-.314Zm0 2.562h7.949c.174 0 .314.14.314.314v.471c0 .174-.14.314-.314.314h-7.95a.313.313 0 0 1-.313-.314v-.47c0-.175.14-.315.313-.315Zm-5.38.118a.484.484 0 0 0-.485.484v.771c0 .268.217.484.484.484h2.798a.484.484 0 0 0 .484-.484v-.771a.484.484 0 0 0-.484-.484H1.465Zm5.38 2.445h7.949c.174 0 .314.14.314.314v.47c0 .175-.14.32-.314.32h-7.95a.318.318 0 0 1-.313-.32v-.47c0-.174.14-.314.313-.314Zm-5.38 1a.478.478 0 0 0-.485.478v.771c0 .267.217.484.484.484h2.798a.484.484 0 0 0 .484-.484v-.771a.478.478 0 0 0-.484-.478H1.465Z" fill="#000"/></svg>