<svg xmlns="http://www.w3.org/2000/svg" width="32" height="32" fill="none"><rect width="32" height="32" fill="#05B862" rx="4"/><path fill="#FAFAFA" stroke="#fff" d="M27.5 16c0 6.351-5.149 11.5-11.5 11.5S4.5 22.351 4.5 16 9.649 4.5 16 4.5 27.5 9.649 27.5 16Z"/><g clip-path="url(#a)"><path fill="#04B761" d="M19.375 9.5h.75v.125h.25v.125h.125v.125h.25V10h.125v.125h.25v5.25h.125v.25h.125v.25h.125V16h.125v.25h.25v.125H22v.125h.125v.125h.25v.125h.125v.125h.25V17h.125v.125h.25v.125h.125v.125h.25v.125h.125v.125h.25v.125H24v1.625h-.125v-.125h-.125v-.125h-.25V19h-.125v-.125h-.25v-.125H23v-.125h-.25V18.5h-.125v-.125h-.25v-.125h-.125v-.125H22V18h-.125v-.125h-.25v-.125H21.5v-.125h-.25V17.5h-.125v-.125h-.25v-.125h-.125v-.125h-.25V17h-.375v-.125H19.5V17H19v.125h-.25v.125h-.125v.125h-.25v.125h-.125v.125H18v.125h-.125v.125h-.25V18H17.5v.125h-.25v.125h-.125v.125h-.25v.125h-.125v.125h-.25v.125h-1v-.125h-.25V18.5h-.125v-.125h-.25v-.125h-.125v-.125h-.25V18h-.125v-.125h-.25v-.125H14v-.125h-.25V17.5h-.125v-.125h-.25v-.125h-.75v.125h-.25v.125h-.125v.125h-.125v.125H12V18h-.125v4h-.25v.125H11.5v.125h-.25v.125h-.125v.125h-.25v.125h-.125v.125h-.25v.125h-.125V23h-.25v.125H10v.125h-.25v.125h-.125v.125h-.25v.125H9.25v.125H9v.125h-.125V24h-.75v-.125H8V13.5h.125v.125h.125v.125h.125v.125H8.5V14h.25v.125h.125v.125H9v.125h.125v.125h.125v.25h.125V15H9.5v.25h.125v.125h.125v.25h.125v.125H10V16h.25v.125h.125v.125h.375v.125h.5v-.125h.25v-.125h.25V16h.125v-.125H12v-.125h.125v-.25h.125v-.125h.125v-.25h.125v-.25h.125v-.125h.125v-.25h.125v-.25h.25v-.125h.125V14h.125v-.125h.125v-.125h.25v-.25h.125v-.125H14v-.125h.125v-.125h.125v-.25h.125v-.25h.125v-.25h.125V12h.125v-.75h.125v-.125H15v.125h.25v.125h.125v.125h.25v.125h.125v.125h.5v-.125h.125V11.5h.25v-.125h.125v-.125H17v-.125h.125V11h.25v-.125h.125v-.125h.25v-.125h.125V10.5h.25v-.125h.125v-.125h.25v-.125h.125V10h.25v-.125H19V9.75h.25v-.125h.125V9.5Zm-.75 1.75v.25H18.5v.25h.125v.125h.125V12h.375v-.125h.125v-.5h-.125v-.125h-.5Zm0 2v.25H18.5v1.25h.125v.125h.25V15H19v-.125h.25V14.5h.125v-.875h-.125v-.25h-.125v-.125h-.5ZM14.25 15.5v.125h-.125v.125H14v.375h.125v.125h.125v.125h.25v.125h.125v.125h.25v.125H15v.125h.25v-.125h.25v-.25h.125v-.125H15.5v-.25h-.25V16h-.125v-.125h-.25v-.125h-.125v-.125h-.25V15.5h-.25Zm3.25 0v.125h-.25v.125h-.125v.125h-.25V16h-.125v.125h-.25v.25h-.125v.125h.125v.25h.25v.125H17v-.125h.125v-.125h.25V16.5h.125v-.125h.25v-.125h.125v-.125H18v-.375h-.125v-.125h-.125V15.5h-.25Z"/><path fill="#04B861" d="M19.25 17.75h1v.125h.25V18h.125v.125h.25v.125H21v.125h.25v.125h.125v.125h.25v.125h.125v.125H22V19h.125v.125h.25v.125h.125v.125h.25v.125h.125v.125h.25v.125h.125v.125h.25V20h.125v.125h.25v.125H24v3.625h-.125V24h-.75v-.125H23v-.125h-.25v-.125h-.125V23.5h-.25v-.125h-.125v-.125H22v-.125h-.125V23h-.25v-.125H21.5v-.125h-.25v-.125h-.125V22.5h-.25v-.125h-.125v-.125h-.25v-.125h-.125V22h-.25v-.125H20v-.125h-.375v.125h-.25V22h-.125v.125H19v.125h-.125v.125h-.25v.125H18.5v.125h-.25v.125h-.125v.125h-.25V23h-.125v.125h-.25v.125h-.125v.125h-.25v.125H17v.125h-.25v.125h-.125v.125h-.25V24h-.75v-.125h-.25v-.125h-.125v-.125H15V23.5h-.125v-.125h-.25v-.125H14.5v-.125h-.25V23h-.125v-.125h-.25v-.125h-.125v-.125h-.25V22.5h-.125v-.125h-.25v-.125H13v-.125h-.25V22h-.125v-3.75h.125v-.125h.5v.125h.25v.125h.125v.125h.25v.125H14v.125h.25v.125h.125V19h.25v.125h.125v.125H15v.125h.25v.125h.375v.125h.75V19.5h.375v-.125H17v-.125h.125v-.125h.25V19h.125v-.125h.25v-.125h.125v-.125h.25V18.5h.25v-.125h.125v-.125h.25v-.125h.125V18h.25v-.125h.125v-.125ZM10.125 8h1.75v.125h.375v.125h.25v.125h.125V8.5h.25v.125H13v.125h.125v.125h.125V9h.125v.125h.125v.25h.125v.25h.125v.25h.125v.375H14v1.5h-.125v.375h-.125v.25h-.125v.25H13.5v.125h-.125V13h-.125v.125h-.125v.125H13v.125h-.25v.125h-.125v.125h-.25v.125h-.125V14h-.125v.25H12v.25h-.125v.125h-.125v.25h-.125v.25H11.5v.125h-.125v.125h-.125v.125h-.625v-.125H10.5v-.25h-.125V15h-.125v-.25h-.125v-.25H10v-.25h-.125v-.125H9.75v-.25h-.125v-.25h-.25V13.5h-.25v-.125H9v-.125h-.125v-.125H8.75V13h-.125v-.125H8.5v-.25h-.125V12.5H8.25v-.25h-.125v-.375H8v-1.75h.125V9.75h.125V9.5h.125v-.25H8.5v-.125h.125V9h.125v-.125h.125V8.75H9v-.125h.125V8.5h.125v-.125h.25V8.25h.25v-.125h.375V8Zm.375 1.625v.125h-.25v.125h-.125V10H10v.125h-.125v.125H9.75v.25h-.125v1h.125v.25h.125v.125H10V12h.125v.125h.125v.125h.375v.125h.75v-.125h.25v-.125h.25V12H12v-.125h.125v-.25h.125v-.25h.125v-.75h-.125v-.375h-.125v-.125H12V10h-.125v-.125h-.125V9.75h-.25v-.125h-1Z"/><path fill="#04B762" d="M21.875 10.875h.375V11h.125v.125h.25v.125h.125v.125H23v.125h.125v.125h.25v.125h.125v.125h.25V12h.125v.125H24v4.625h-.25v-.125h-.125V16.5h-.25v-.125h-.125v-.125H23v-.125h-.125V16h-.25v-.125H22.5v-.125h-.25v-.125h-.125v-.25H22V15h-.125v-4.125Z"/><path fill="#04B960" d="M10.75 10.375h.5v.125h.125v.125h.125v.125h.125v.375H11.5v.25h-.125v.125h-.25v.125h-.25V11.5h-.25v-.125H10.5v-.125h-.125v-.5h.125v-.25h.25v-.125Z"/></g><circle cx="16" cy="16" r="11.5" stroke="#fff"/><defs><clipPath id="a"><path fill="#fff" d="M8 8h16v16H8z"/></clipPath></defs></svg>