<svg width="800" height="800" viewBox="-35.63 0 419.224 419.224" xmlns="http://www.w3.org/2000/svg"><defs><style>.a{fill:#fff}.b{fill:#211916}.c{fill:#bcbab9}</style></defs><path class="a" d="M23.062 379.5c-5.854 0-11.283-.007-16.163-.007-2.538 0-4.41-.752-4.41-3.666 0-.413-.076-3.79-.076-4.2s.076-3.687.076-4.1c0-2.914 20.575-23.778 20.575-23.778 48.384-.134 269.031 0 301.751 0 0 0 20.575 20.864 20.575 23.778 0 .413.076 3.687.075 4.1s-.075 3.79-.075 4.2c0 2.914-1.873 3.666-4.41 3.666-49.547 0-108.639.23-143.629.233-32.725-.01-121.108-.195-174.289-.226ZM23.062 264.543c-5.854 0-11.283-.006-16.163-.006-2.538 0-4.41-.752-4.41-3.666 0-.413-.076-3.79-.076-4.2s.076-3.688.076-4.1c0-2.914 20.575-23.778 20.575-23.778 48.384-.134 269.031 0 301.751 0 0 0 20.575 20.864 20.575 23.778 0 .412.076 3.687.075 4.1s-.075 3.79-.075 4.2c0 2.914-1.873 3.666-4.41 3.666-49.547 0-108.639.23-143.629.233-32.725-.005-121.108-.19-174.289-.227ZM23.062 145.232c-5.854 0-11.283-.006-16.163-.006-2.538 0-4.41-.753-4.41-3.667 0-.413-.076-3.789-.076-4.2s.076-3.688.076-4.1c0-2.914 20.575-23.778 20.575-23.778 48.384-.133 269.031 0 301.751 0 0 0 20.575 20.864 20.575 23.778 0 .413.076 3.688.075 4.1s-.075 3.789-.075 4.2c0 2.914-1.873 3.667-4.41 3.667-49.547 0-108.639.23-143.629.233-32.725-.006-121.108-.191-174.289-.227ZM23.062 2.622c-5.854 0-11.283.006-16.163.006-2.538 0-4.41.752-4.41 3.667 0 .412-.076 3.789-.076 4.2s.076 3.688.076 4.1c0 2.914 20.575 19.814 20.575 19.814 48.384.133 269.031 0 301.751 0 0 0 20.575-16.9 20.575-19.814 0-.413.076-3.688.075-4.1s-.075-3.79-.075-4.2c0-2.915-1.873-3.667-4.41-3.667-49.547 0-108.639-.23-143.629-.233-32.725.005-121.108.19-174.289.227Z"/><path class="a" d="M23.064 145.232c53.181.036 141.562.221 174.287.227 31.253 0 81.734-.187 127.466-.226v83.557c-32.72 0-253.367-.134-301.751.015Z"/><path class="b" d="M23.064 147.632q28.133.019 56.267.066 30.2.043 60.4.093 24.328.038 48.656.063 26.849.021 53.7-.064 36.688-.081 73.377-.147l9.35-.01-2.4-2.4c-.09 8.973 0 17.952 0 26.925v56.632l2.4-2.4h-14.6l-23.326-.009-30.042-.011-34.924-.013-37.466-.011-38.158-.006h-36.843q-16.761 0-33.522.008-14.1.006-28.2.019-10.471.011-20.944.033l-3.725.01 2.4 2.4v-83.578c0-3.089-4.8-3.094-4.8 0v83.573a2.434 2.434 0 0 0 2.4 2.4q9.369-.029 18.74-.036 13.284-.017 26.568-.022 16.2-.009 32.391-.011h74.405l37.819.01 35.61.013 31.4.012 25.176.009h19.646a2.435 2.435 0 0 0 2.4-2.4v-73.736c0-3.27-.031-6.541 0-9.811a2.432 2.432 0 0 0-2.4-2.4q-37.091.032-74.182.138-28.914.066-57.828.086-23.085-.012-46.169-.056l-59.83-.092q-28.714-.043-57.428-.072h-6.316c-3.091-.007-3.096 4.793-.002 4.795Z"/><path class="a" d="M324.815 343.739v-79.195c-45.733.04-96.214.223-127.467.226-32.725 0-121.106-.19-174.287-.227v79.2c48.387-.136 269.039-.002 301.754-.004Z"/><path class="b" d="M327.215 343.739V270c0-1.819-.019-3.639 0-5.459a2.433 2.433 0 0 0-2.4-2.4q-37.092.033-74.182.139-28.914.066-57.829.085-23.085-.012-46.169-.055-29.916-.045-59.83-.093-28.714-.042-57.428-.072l-6.316-.005a2.435 2.435 0 0 0-2.4 2.4v79.2a2.434 2.434 0 0 0 2.4 2.4q9.369-.026 18.74-.032 13.284-.015 26.568-.019 16.2-.007 32.391-.008h36.382q19.011 0 38.023.006l37.819.011 35.61.013 31.4.012 25.176.01h19.646c3.089 0 3.094-4.8 0-4.8h-14.6l-23.326-.008-30.042-.012-34.924-.013-37.466-.011q-19.08-.006-38.158-.008H75.935q-14.1 0-28.2.016-10.471.009-20.944.029-1.863 0-3.725.009l2.4 2.4v-79.2l-2.4 2.4q28.133.02 56.267.066 30.2.045 60.4.093 24.328.038 48.656.063 26.849.021 53.7-.063 36.688-.082 73.378-.148l9.35-.01-2.4-2.4c-.215 17.721 0 35.457 0 53.178v26.017c-.002 3.097 4.798 3.102 4.798.008Z"/><path class="a" d="M324.815 34.412c-32.72 0-253.367.133-301.751 0v75.066c48.384-.133 269.031 0 301.751 0Z"/><path class="b" d="M324.815 32.012h-14.6l-23.326.009-30.042.012-34.924.013-37.466.012-38.158.008h-36.843q-16.761 0-33.522-.006-14.1 0-28.2-.016-10.471-.009-20.944-.028l-3.725-.009a2.433 2.433 0 0 0-2.4 2.4v75.066a2.433 2.433 0 0 0 2.4 2.4q9.369-.025 18.74-.032 13.284-.013 26.568-.019 16.2-.006 32.391-.008h36.382q19.011 0 38.023.007l37.819.011 35.61.013 31.4.012 25.176.01h19.646a2.435 2.435 0 0 0 2.4-2.4V34.412c0-3.089-4.8-3.094-4.8 0v75.066l2.4-2.4h-14.6l-23.326-.009-30.042-.012-34.924-.013-37.466-.012-38.158-.008h-36.843q-16.761 0-33.522.006-14.1 0-28.2.015-10.471.01-20.944.029l-3.725.009 2.4 2.4V34.412l-2.4 2.4q9.369.026 18.74.032 13.284.014 26.568.018 16.2.007 32.391.008h36.382q19.011 0 38.023-.007l37.819-.011 35.61-.013 31.4-.012 25.176-.01 17.008-.005h2.638c3.075 0 3.084-4.8-.01-4.8Z"/><path class="a" d="M23.064 380.267v36.55c19.21 0 285 .015 301.751 0v-36.55"/><path class="c" d="M1.519 144.448a4.02 4.02 0 0 1-.428-1.956c0-.413-.08-3.79-.079-4.2s.079-4.48.079-4.893v-1.5h1.582c50.937-.133 307.078-.712 341.524-.712h1.189v2.213c0 .413.08 4.48.079 4.893s-.079 3.79-.079 4.2c0 2.914-1.971 3.666-4.643 3.666-52.16 0-106.022.23-142.858.233-34.451-.006-127.495-.19-183.481-.227-6.164 0-3.532-.006-8.67-.006-1.934-.001-3.495-.394-4.215-1.711ZM1.519 4.244A4.02 4.02 0 0 0 1.091 6.2c0 .413-.08 3.79-.079 4.2s.079 4.48.079 4.893v1.5l1.582.005c50.937.133 307.078.712 341.524.712h1.189V15.3c0-.413.08-4.48.079-4.893s-.079-3.79-.079-4.2c0-2.914-1.971-3.666-4.643-3.666-52.16 0-106.022-.23-142.858-.233-34.451 0-127.495.19-183.481.227-6.164 0-3.532.006-8.67.006-1.934-.007-3.495.386-4.215 1.703ZM1.519 263.62a4.022 4.022 0 0 1-.428-1.957c0-.412-.08-3.789-.079-4.2s.079-4.481.079-4.893v-1.5h1.582c50.937-.133 307.078-.712 341.524-.712h1.189v2.219c0 .412.08 4.48.079 4.893s-.079 3.79-.079 4.2c0 2.915-1.971 3.667-4.643 3.667-52.16 0-106.022.23-142.858.233-34.451-.006-127.495-.19-183.481-.227-6.164 0-3.532-.006-8.67-.006-1.934-.007-3.495-.4-4.215-1.717ZM1.519 378.571a4.02 4.02 0 0 1-.428-1.956c0-.413-.08-3.79-.079-4.2s.079-4.48.079-4.893v-1.5h1.582c50.937-.133 307.078-.712 341.524-.712h1.189v2.219c0 .413.08 4.48.079 4.893s-.079 3.79-.079 4.2c0 2.914-1.971 3.666-4.643 3.666-52.16 0-106.022.23-142.858.233-34.451 0-127.495-.19-183.481-.227-6.164 0-3.532-.006-8.67-.006-1.934-.007-3.495-.4-4.215-1.717ZM23.064 416.817c6.469 0 285 .015 301.751 0"/><path class="b" d="M23.064 419.217H324.815c3.089 0 3.094-4.8 0-4.8H23.064c-3.089 0-3.094 4.8 0 4.8Z"/><path class="b" d="M121.247 380.267v36.55c0 3.088 4.8 3.093 4.8 0v-36.55c0-3.088-4.8-3.093-4.8 0ZM20.664 380.267v36.55c0 3.088 4.8 3.093 4.8 0v-36.55c0-3.088-4.8-3.093-4.8 0ZM221.831 380.267v36.55c0 3.088 4.8 3.093 4.8 0v-36.55c0-3.088-4.8-3.093-4.8 0ZM322.415 380.267v36.55c0 3.088 4.8 3.093 4.8 0v-36.55c0-3.088-4.8-3.093-4.8 0Z"/><path class="b" d="M23.062 377.1q-6.051 0-12.1-.006a32.5 32.5 0 0 1-4.925-.034c-.99-.157-1.1-.373-1.145-1.353a80.295 80.295 0 0 1-.059-5.076 17.2 17.2 0 0 0 .057-2.895c-.1-.612-.116.646-.025.1 0 0-.267.415.052-.088 3.8-5.988 9.521-11.556 14.619-16.9q2.6-2.721 5.229-5.406l-1.7.7q22.773-.063 45.546-.051 34.28-.015 68.559-.007 37.872 0 75.743.017l67.251.026 42 .015h2.655l-1.7-.7c4.756 4.824 9.435 9.742 13.925 14.815a51.9 51.9 0 0 1 5.988 7.618c.338.56-.131-.462.012.054-.081-.293-.021-.59-.045.139-.035 1.08.056 2.17.064 3.251.006.865-.021 1.73-.038 2.6-.012.632.226 2.2-.161 2.747-.471.665-2.1.431-2.745.431h-6.083q-5.748 0-11.5.008-11.883.011-23.765.033-23.616.041-47.233.1-34.733.079-69.466.079-36.064-.036-72.131-.1-39.293-.062-78.586-.106l-8.3-.006c-3.088 0-3.093 4.8 0 4.8q48.3.033 96.6.127 40.081.063 80.164.1c36.007-.013 72.014-.151 108.022-.2q14.548-.021 29.1-.027c3.693 0 8.922.658 10.467-3.713.778-2.2.485-5.078.443-7.389-.036-2.027.147-3.921-.891-5.727a35.4 35.4 0 0 0-3.6-4.8c-3.516-4.237-7.3-8.259-11.088-12.248q-2.2-2.317-4.434-4.609c-.979-1-1.7-1.989-3.234-2.063-2.156-.1-4.344 0-6.5 0l-20.562-.007-63.423-.025q-39.236-.015-78.47-.023-37.267-.006-74.535 0-26.525.007-53.051.043l-4.079.009a4.314 4.314 0 0 0-3.491 1.595q-4.836 4.952-9.536 10.037c-3.357 3.646-6.946 7.337-9.672 11.5a8.263 8.263 0 0 0-1.233 4.916c-.046 2.3-.116 4.637.054 6.929.333 4.517 4.035 5.574 7.927 5.574q7.514 0 15.027.007c3.091-.011 3.096-4.811.002-4.811ZM23.062 262.143h-12.1a32.634 32.634 0 0 1-4.925-.034c-.99-.157-1.1-.373-1.145-1.354a80.277 80.277 0 0 1-.059-5.076 17.2 17.2 0 0 0 .057-2.9c-.1-.611-.116.647-.025.1 0 0-.267.415.052-.088 3.8-5.988 9.521-11.556 14.619-16.9q2.6-2.722 5.229-5.406l-1.7.7q22.773-.063 45.546-.051 34.28-.015 68.559-.008 37.872 0 75.743.018l67.251.026 42 .014h2.655l-1.7-.7c4.756 4.824 9.435 9.741 13.925 14.815a51.848 51.848 0 0 1 5.988 7.618c.338.559-.131-.462.012.054-.081-.293-.021-.591-.045.139-.035 1.08.056 2.17.064 3.251.006.865-.021 1.73-.038 2.6-.012.632.226 2.2-.161 2.746-.471.665-2.1.432-2.745.432h-6.083q-5.748 0-11.5.008-11.883.011-23.765.033-23.616.041-47.233.1-34.733.081-69.466.08-36.064-.038-72.131-.1-39.293-.062-78.586-.106l-8.3-.007c-3.088 0-3.093 4.8 0 4.8q48.3.035 96.6.128 40.081.063 80.164.1c36.007-.014 72.014-.151 108.022-.205q14.548-.022 29.1-.027c3.693 0 8.922.657 10.467-3.713.778-2.2.485-5.078.443-7.389-.036-2.027.147-3.921-.891-5.728a35.394 35.394 0 0 0-3.6-4.8c-3.516-4.237-7.3-8.259-11.088-12.248q-2.2-2.319-4.434-4.61c-.979-1-1.7-1.989-3.234-2.062-2.156-.1-4.344 0-6.5 0q-10.281 0-20.562-.007l-63.423-.024q-39.236-.015-78.47-.023-37.267-.006-74.535 0-26.525.007-53.051.044l-4.079.009a4.313 4.313 0 0 0-3.491 1.594q-4.836 4.953-9.536 10.038c-3.357 3.645-6.946 7.337-9.672 11.5a8.263 8.263 0 0 0-1.233 4.916c-.046 2.3-.116 4.637.054 6.929.333 4.516 4.035 5.574 7.927 5.574q7.514 0 15.027.006c3.091-.003 3.096-4.803.002-4.806ZM23.062 142.832q-6.051 0-12.1-.006a32.5 32.5 0 0 1-4.925-.034c-.99-.156-1.1-.373-1.145-1.353a80.295 80.295 0 0 1-.059-5.076 17.2 17.2 0 0 0 .057-2.9c-.1-.612-.116.646-.025.1 0 0-.267.415.052-.088 3.8-5.988 9.521-11.555 14.619-16.9q2.6-2.721 5.229-5.406l-1.7.7q22.773-.063 45.546-.051 34.28-.015 68.559-.007 37.872 0 75.743.018 33.626.011 67.251.025 21 .009 42 .015h2.655l-1.7-.7c4.756 4.825 9.435 9.742 13.925 14.815a51.908 51.908 0 0 1 5.988 7.619c.338.559-.131-.463.012.053-.081-.292-.021-.59-.045.14-.035 1.079.056 2.17.064 3.25.006.865-.021 1.73-.038 2.595-.012.632.226 2.2-.161 2.747-.471.665-2.1.432-2.745.432h-6.083q-5.748 0-11.5.008-11.883.012-23.765.033-23.616.042-47.233.1-34.733.079-69.466.079-36.064-.036-72.131-.1-39.293-.061-78.586-.106l-8.3-.007c-3.088 0-3.093 4.8 0 4.8q48.3.033 96.6.128 40.081.063 80.164.1c36.007-.013 72.014-.151 108.022-.205q14.548-.021 29.1-.027c3.693 0 8.922.658 10.467-3.712.778-2.2.485-5.078.443-7.39-.036-2.027.147-3.921-.891-5.727a35.466 35.466 0 0 0-3.6-4.8c-3.516-4.236-7.3-8.259-11.088-12.248q-2.2-2.317-4.434-4.609c-.979-1.005-1.7-1.989-3.234-2.063-2.156-.1-4.344 0-6.5 0l-20.562-.007-63.423-.025q-39.236-.014-78.47-.022-37.267-.007-74.535 0-26.525.008-53.051.043l-4.079.01a4.313 4.313 0 0 0-3.484 1.597q-4.836 4.951-9.536 10.037c-3.357 3.646-6.946 7.338-9.672 11.5a8.263 8.263 0 0 0-1.233 4.916c-.046 2.3-.116 4.637.054 6.929.333 4.517 4.035 5.574 7.927 5.575q7.514 0 15.027.006c3.084.001 3.089-4.799-.005-4.801Z"/><path class="b" d="M3.992 368.412q9.885-.027 19.771-.05 14.685-.038 29.371-.071l36.711-.085 41.28-.093 43.563-.1q21.7-.048 43.41-.093l40.823-.083 35.8-.069q14.172-.027 28.342-.049 9.254-.015 18.506-.023h2.692c3.089 0 3.094-4.8 0-4.8q-7.818 0-15.635.015-13.063.019-26.128.043l-34.354.065q-19.916.039-39.83.081l-43.008.091-43.749.1-42.056.094-37.928.087-31.364.075-22.441.056-3.776.01c-3.088.009-3.094 4.809 0 4.8ZM327.215 343.741V264.77c0-3.088-4.8-3.094-4.8 0v78.971c0 3.088 4.8 3.093 4.8 0ZM311.666 343.741V264.77c0-3.088-4.8-3.094-4.8 0v78.971c0 3.088 4.8 3.093 4.8 0ZM41.013 343.741V264.77c0-3.088-4.8-3.094-4.8 0v78.971c0 3.088 4.8 3.093 4.8 0ZM41.013 228.761v-83.3c0-3.089-4.8-3.094-4.8 0v83.3c0 3.089 4.8 3.094 4.8 0ZM41.013 109.45V34.412c0-3.089-4.8-3.094-4.8 0v75.038c0 3.088 4.8 3.094 4.8 0ZM311.666 228.79v-83.331c0-3.089-4.8-3.094-4.8 0v83.331c0 3.088 4.8 3.093 4.8 0ZM311.666 108.9V34.412c0-3.089-4.8-3.094-4.8 0V108.9c0 3.088 4.8 3.093 4.8 0ZM20.664 264.543v79.138c0 3.089 4.8 3.094 4.8 0v-79.138c0-3.088-4.8-3.093-4.8 0ZM3.992 253.461q9.885-.027 19.771-.051l29.371-.07 36.711-.085q20.64-.048 41.28-.093l43.563-.1 43.41-.092 40.823-.084 35.8-.069 28.342-.049q9.254-.013 18.506-.022h2.692c3.089 0 3.094-4.8 0-4.8q-7.818 0-15.635.015-13.063.019-26.128.043l-34.354.065q-19.916.039-39.83.081-21.5.043-43.008.09l-43.749.1-42.056.094q-18.964.042-37.928.087l-31.364.075-22.441.056-3.776.01c-3.088.009-3.094 4.809 0 4.8ZM327.215 228.79v-83.331c0-3.089-4.8-3.094-4.8 0v83.331c0 3.088 4.8 3.093 4.8 0ZM20.664 145.232v83.5c0 3.089 4.8 3.094 4.8 0v-83.5c0-3.089-4.8-3.094-4.8 0ZM3.992 134.15q9.885-.027 19.771-.051l29.371-.071 36.711-.085 41.28-.093 43.563-.095 43.41-.093 40.823-.083 35.8-.069q14.172-.027 28.342-.049 9.254-.015 18.506-.023h2.692c3.089 0 3.094-4.8 0-4.8q-7.818 0-15.635.016-13.063.018-26.128.043-17.176.03-34.354.065l-39.83.08-43.008.091-43.749.095-42.056.094-37.928.088-31.364.074q-11.22.027-22.441.057l-3.776.01c-3.088.008-3.094 4.808 0 4.8ZM327.215 108.9V34.412c0-3.089-4.8-3.094-4.8 0V108.9c0 3.088 4.8 3.093 4.8 0ZM20.664 34.412v75.066c0 3.089 4.8 3.094 4.8 0V34.412c0-3.089-4.8-3.094-4.8 0Z"/><path class="b" d="M23.062.222c-5.2 0-10.4-.017-15.6.006C3.41.246.3 1.859.089 6.3c-.106 2.258-.073 4.53-.027 6.8a7.333 7.333 0 0 0 1.779 5.1c3.08 3.856 6.993 7.131 10.685 10.38 2.88 2.535 5.778 5.072 8.77 7.475 1.267 1.017 2.94.764 4.483.768l4.357.008q5.334.011 10.668.016 13.587.015 27.173.019 35.393.016 70.786.008 39.036 0 78.073-.019l67.8-.026 24.562-.009c5.115 0 10.3.241 15.409 0 1.45-.07 2.44-1.143 3.5-2.03q2.488-2.08 4.943-4.2a140.978 140.978 0 0 0 11.617-10.8c1.141-1.236 2.6-2.688 3.017-4.38.488-1.994.192-4.391.152-6.439-.061-3.115.083-6.573-3.263-8.059-1.854-.824-3.916-.671-5.9-.671h-6.981Q275.384.2 219.074.017q-38.823-.064-77.647.043Q92.631.135 43.833.2 33.448.213 23.062.222c-3.088 0-3.093 4.8 0 4.8q37.89-.027 75.78-.1 37.132-.057 74.267-.11 31.827-.039 63.656.036 46.143.1 92.287.172c3.784 0 7.569-.006 11.353 0 .649 0 2.015-.193 2.458.432.4.571.152 2.278.165 2.936.037 1.883-.088 3.777-.03 5.656.023.737-.006.413.038.159-.026.151.343-.48-.029.021-.141.189-.26.406-.395.6-.336.488.214-.263-.032.049-.133.169-.272.334-.412.5-5.1 6.02-11.56 11.087-17.6 16.129l-1.452 1.205 1.7-.7q-19.072 0-38.145.012-32.388.014-64.774.025-37.762.014-75.525.02H75.745q-24.466-.007-48.932-.044l-3.748-.009 1.7.7c-4.573-3.758-9.072-7.624-13.409-11.651-1.362-1.266-2.71-2.55-4-3.889a38.933 38.933 0 0 1-1.567-1.708 7.414 7.414 0 0 1-.8-1.046c-.512-.722 0-.224-.1.177a11.977 11.977 0 0 0-.053-2.772c-.033-1.659.01-3.316.045-4.976.016-.771-.112-1.334.62-1.677 1.266-.591 3.507-.145 4.863-.145q6.349 0 12.7-.006c3.087.002 3.092-4.798-.002-4.796Z"/><path class="b" d="M3.992 18.5q9.885.027 19.771.051l29.371.07 36.711.085q20.64.048 41.28.093l43.563.1 43.41.092 40.823.084 35.8.069q14.172.026 28.342.049 9.254.014 18.506.023h2.692c3.089 0 3.094-4.8 0-4.8q-7.818 0-15.635-.016-13.063-.018-26.128-.043-17.176-.03-34.354-.065l-39.83-.08-43.008-.091-43.749-.1q-21.028-.045-42.056-.094-18.964-.042-37.928-.087l-31.364-.074-22.441-.057-3.776-.009c-3.092 0-3.092 4.8 0 4.8Z"/></svg>