<svg width="32" height="32" fill="none" xmlns="http://www.w3.org/2000/svg"><rect width="32" height="32" rx="4" fill="#05B862"/><circle cx="16" cy="16" r="11.5" fill="#FAFAFA" stroke="#fff"/><circle cx="16" cy="16" r="11.5" stroke="#fff"/><path d="M14.167 22.417v-4.584h3.667v4.584a.92.92 0 0 0 .916.916h2.75a.92.92 0 0 0 .917-.916V16h1.558c.422 0 .623-.523.303-.798L16.614 8.3a.924.924 0 0 0-1.228 0l-7.663 6.902a.456.456 0 0 0 .302.798h1.559v6.417a.92.92 0 0 0 .916.916h2.75a.92.92 0 0 0 .917-.916Z" fill="#05B862"/></svg>