<svg xmlns="http://www.w3.org/2000/svg" width="32" height="32" fill="none"><rect width="32" height="32" fill="#05B862" rx="4"/><circle cx="16" cy="16" r="11.5" fill="#FAFAFA" stroke="#fff"/><circle cx="16" cy="16" r="11.5" stroke="#fff"/><g clip-path="url(#a)"><path fill="#04B861" d="M10.188 8h.437v.063h.063v.062h.062v.063h.063v.062h.062v.063h.063v.062H11v.063h.063V8.5h.062v.063h.063v.062h.062v.063h.063v.062h.062v.063h.063v.062h.062v.063h.063V9h.062v.063h.063v.124h.062v1.063h.063v.063h.062v.062h.063v.063H12v.062h.063v.063h.062v.062h.063v.063h.062v.062h.063v.063h.062v.062h.063v.063h.062V11h.063v.063h.062v.062h.063v.063h.062v.124h.063v4.063h-.063v.063h-.063v.062h-.374v4.313h.062v-.125h.063V19.5h.062v-.125h.063v-.125h.062v-.125h.063v-.188h.062V17.75h.063v-.125h.124v-.063h.438v-.125h.063v-.25h.062v-.25h.063v-.25h.062V16.5h.063v-.25h.062V16h.063v-.25h.062v-.188h.063v-.25H14v-.25h.063v-.25h.062v-.187h.063v-.25h.062v-.25h.063v-.25h.062v-1.25h.063v-.063h.062V12.5h.188v-.25h.062v-.438h.063v-.374h.062V11h.063v-.375H15v-.438h.063v-.374h.062v-.25h.063v-.126h.062v-.062h.063v-.063h.062V9.25h.063v-.063h.124v-.062h.126V8h.624v1.125h.188v.063h.063v.062h.062v.063h.063v.062h.062v.063h.063v.124h.062v.25h.063v.376H17v.437h.063V11h.062v.438h.063v.374h.062v.376h.063v.312h.187v.063h.063v.062h.062v1.25h.063v.25h.062v.25h.063v.25h.062v.188h.063v.25H18v.25h.063v.25h.062v.187h.063V16h.062v.25h.063v.25h.062V16h.25v-1.563h-.25v-.624h.25v-1.5h-.25v-.626h.25V9.75h.063v-.125h.125v-.063h.375v-1.5h.062V8h3.625v.063h.063v1.5h.375v.062h.125v.125h.062v1.938h.25v.624h-.25v1.5h.25v.626h-.25V16h.25v.563h-.25v1.562h.25v.563h-.25v1.562h.438v.063H24V24h-6.188v-.563h.375v-.125h-.062v-.187h-.063V23H18v-.125h-.063v-.188h-.062v-.125h-.063v-.187h-.062v-.125h-.063v-.125h-.062v-.188h-.063v-.125H17.5v-.125h-.063v-.062h-.062V21.5h-.063v-.063h-.062v-.062h-.063v-.063h-.062v-.062h-.063v-.063H17v-.062h-.125v-.063h-.063V21h-.187v-.063H16.5v-.062h-.313v-.063h-.375v.063H15.5v.063h-.125V21h-.125v.063h-.125v.062H15v.063h-.063v.062h-.062v.063h-.063v.062h-.062v.063h-.063v.062h-.062v.125h-.063v.063H14.5v.125h-.063v.125h-.062v.187h-.063v.125h-.062v.125h-.063v.188h-.062v.125h-.063v.187H14V23h-.063v.125h-.062v.188h-.063v.125h.376V24H8v-.563h.5V15.5h-.375v-.063h-.063v-.062H8V11.25h.063v-.063h.062v-.062h.063v-.063h.062V11h.063v-.063h.062v-.062h.063v-.063H8.5v-.062h.063v-.063h.062v-.062h.063v-.063h.062V10.5h.063v-.063h.062v-.062h.063v-.063H9v-.062h.063V9.125h.062v-.063h.063V9h.062v-.063h.063v-.062h.062v-.063h.063V8.75H9.5v-.063h.063v-.062h.062v-.063h.063V8.5h.062v-.063h.063v-.062h.062v-.063h.063V8.25H10v-.063h.063v-.062h.062v-.063h.063V8Zm9.562.563v1h.5v-.376h.063v-.124h.437v.062h.063v.438h.5v-.376h.062v-.062h.063v-.063h.375v.063h.062v.438h.5v-1H19.75Zm-9.375.124v.063h-.063v.063h-.062v.062h-.063v.063h-.062V9h-.063v.063h.688V9h-.063v-.063h-.062v-.062h-.063v-.063H10.5V8.75h-.063v-.063h-.062Zm-.75.938v.5h1.563v-.5H9.624Zm6.25 0v.063h-.063v.062h-.062v.063h-.063v.25h-.062v.062h.75v-.063h-.063v-.25h-.062V9.75h-.063v-.063h-.062v-.062h-.25Zm3.375.563v1.5h.438v-.876h.062v-.124h.125v-.063h.25v.063h.125v.124h.063v.876h.437v-.876h.063v-.062h.062v-.063h.063v-.062h.25v.063h.125v.124h.062v.876h.438v-.813h.062v-.125h.063v-.063H22v-.062h.25v.063h.125v.124h.063v.876h.437v-1.5H19.25Zm-9.813.5v.062h-.062v.063h-.063v.062H9.25v.063h-.063V11h-.062v.063h-.063v.062H9v.063h2.813v-.063h-.063v-.063h-.063V11h-.062v-.063h-.063v-.062H11.5v-.063h-.063v-.062h-.062v-.063H9.437Zm6.126 0v.187H15.5v.438h-.063v.374h-.062v.438h-.063v.375h1.376v-.375h-.063v-.438h-.063v-.374H16.5v-.438h-.063v-.188h-.875Zm-7 1.062v3.125h3.687V11.75H8.562Zm10.687.563v1.5h.438v-.876h.062v-.062h.063v-.063h.062v-.062h.25v.063h.063v.062h.062v.063h.063v.874h.437v-.874h.063v-.063h.062v-.063h.063v-.062h.25v.063h.062v.062h.063v.063h.062v.874h.438V13h.062v-.125h.063v-.063h.125v-.062h.187v.063h.125v.124h.063v.876h.437v-1.5H19.25Zm-4.313.812v.438h2.126v-.438h-2.125Zm-.062 1.063v.187h-.063v.25h-.062v.25h-.063v.188h-.062v.25h-.063v.25H14.5v.25h-.063V16h-.062v.25h-.063v.25h-.062v.25h-.063v.188h-.062v.25h-.063v.25H14v.125h1v-.188h.063v-.188h.062v-.25h.063v-.187h.062v-.188h.063v-.25h.062v-.187h.063v-.188h.062v-.25h.063V15.5h.062v-.188h.063v-.25h.062V15h.063v-.063h.124v-.062h.126v.063h.125V15h.062v.063h.063v.25h.062v.187h.063v.188h.062v.25h.063v.187h.062v.188h.063v.25h.062v.187h.063v.188h.062v.25h.063v.187H17v.188h1v-.125h-.063v-.25h-.062v-.25h-.063v-.188h-.062v-.25h-.063v-.25h-.062V16h-.063v-.188H17.5v-.25h-.063v-.25h-.062v-.25h-.063v-.187h-.062v-.25h-.063v-.25h-.062v-.188h-2.25Zm4.375.25V16h.438v-.938h.062V15h.063v-.063h.125v-.062h.125v.063h.125V15h.062v.063h.063V16h.437v-.875h.063V15h.062v-.063H21v-.062h.125v.063h.125V15h.063v.063h.062V16h.438v-.875h.062V15h.063v-.063h.125v-.062h.125v.063h.125V15h.062v.063h.063V16h.437v-1.563H19.25ZM9.125 15.5v7.938h.438v-1.063h.624v1.063h.438v-1.063h.563v-.063h.062v-.125h.063v-.125h.062v-.125h.063v-.187h.062v-.125h.063V21.5h.062v-.125h.063V15.5H9.124Zm6.813.875v.188h-.063v.187h-.063V17h-.062v.188h-.063v.187h-.062v.188h.75v-.188h-.063v-.188h-.062V17h-.063v-.25h-.062v-.188h-.063v-.187h-.125Zm2.437.188v.125h.063v.25h.062v.25h.063v.25h.062v-.875h-.25Zm.875 0v1.562h.438v-.938h.062v-.062h.063v-.063h.375v.063h.062v.125h.063v.875h.437v-.875h.063v-.125h.062v-.063h.375v.063h.063v.063h.062v.937h.438v-.875h.062v-.125h.063v-.063h.375v.063h.062v.063h.063v.937h.437v-1.563H19.25Zm-5.875 1.625v.437h5.25v-.438h-5.25Zm5.875.5v.25h.063v.187h.062v.125h.063v.125h.062v.125h.063v.188h.062v.125h.063v-.438h.062v-.125h.063v-.063h.375v.063h.062v.125h.063v.875h.437v-.875h.063v-.125h.062v-.063h.375v.063h.063v.063h.062v.937h.438v-.875h.062v-.125h.063v-.063h.375v.063h.062v.063h.063v.937h.437v-1.563H19.25Zm-6 .562v.125h-.063v.125h-.062v.125h-.063v.125H13v.188h-.063v.125h-.062v.125h-.063v.125h-.062v.125h-.063v.187h-.062v.125h-.063v.125H12.5V21h-.063v.188h-.062v.125h-.063v.125h-.062v.187h-.063v.125h-.062v.125h-.063V22H12v.188h-.063v.125h-.062v.125h-.063v.125h-.062v.187h-.063v.125h-.062V23h-.063v.125H11.5v.188h-.063v.125h1.688v-.063h.063v-.188h.062v-.125h.063v-.125h.062v-.187h.063v-.125h.062v-.188h.063v-.125h.062v-.125h.063V22h.062v-.125h.063v-.125h.062v-.188h.063v-.125H14v-.125h.063v-.062h.062v-.125h.063v-.063h.062V21h.063v-.063h.062v-.062h.063v-.063h.062v-.062h.063v-.063h.124v-.062h.063v-.063h.125V20.5H15v-.063h.125v-.062h.188v-.063h.187v-.062h.938v.063h.25v.062h.187v.063H17v.062h.125v.063h.125v.062h.063v.063h.125v.062h.062v.063h.063v.062h.062v.063h.063V21h.062v.063h.063v.062h.062v.125h.063v.063H18v.125h.063v.125h.062v.125h.063v.187h.062V22h.063v.188h.062v.125h.063v.125h.062v.187h.063v.125h.062v.188h.063v.125h.062v.125h.063v.187h.062v.063h1.688v-.188H20.5v-.125h-.063V23h-.062v-.125h-.063v-.188h-.062v-.125h-.063v-.125h-.062v-.125h-.063v-.187H20V22h-.063v-.125h-.062v-.125h-.063v-.188h-.062v-.125h-.063v-.125h-.062v-.125h-.063V21H19.5v-.125h-.063v-.125h-.062v-.125h-.063v-.188h-.062v-.125h-.063v-.125h-.062v-.125h-.063v-.187H19v-.125h-.063v-.125h-.062V19.5h-.063v-.188h-.062v-.062h-5.5Zm6.875 1.563v.125h.063v.125h.062v.125h.063v.187h.062v.125h.063v.063h.062V21.5h.063v-.063h.062v-.062h.188v-.063h.5v.063h.187v.063h.063v.062h.062v.063h.063v.062h.062v.063h.063v.125h.062v1.625h.5v-1.563h.063v-.125h.062v-.125h.063v-.063h.062V21.5h.063v-.063h.125v-.062h.125v-.063h.5v-.5h-3.313ZM21 21.875v.063h-.063V22h-.062v.063h-.063v.437h.063v.125h.063v.125H21v.125h.063v.188h.062v.125h.063v.125h.062v.125h.063v-1.375h-.063v-.125h-.125v-.063H21Zm2.188 0v.063h-.125V22H23v.125h-.063v1.313h.5v-1.375h-.062v-.125h-.125v-.063h-.063Z"/><path fill="#04B761" d="M10.063 12.25h.687v.063h.125v.062H11v.063h.063v.062h.124v.063h.063v.124h.063v.063h.062v.125h.063v.188h.062v.562h-.063v.188h-.062v.124h-.063V14h-.062v.063h-.063v.062h-.062v.063h-.063v.062h-.124v.063h-.063v.062h-.25v.063h-.5v-.063h-.188v-.063h-.124v-.062H9.75v-.063h-.063v-.062h-.062v-.063h-.063V14H9.5v-.063h-.063v-.124h-.062v-.188h-.063V13h.063v-.125h.063v-.125H9.5v-.125h.063v-.063h.062V12.5h.063v-.063h.124v-.062h.126v-.063h.124v-.062Zm.25.563v.062h-.126v.063h-.124V13H10v.125h-.063v.125h-.062v.125h.063v.188H10v.062h.063v.063h.062v.062h.063v.063h.437v-.063h.063v-.063h.062v-.062h.063v-.063h.062v-.437h-.063V13h-.062v-.063h-.125v-.062H10.5v-.063h-.188Z"/><path fill="#05B862" d="M10.625 20.25h.625v1.625h-.625V20.25Z"/><path fill="#05B861" d="M9.563 20.25h.624v1.625h-.624V20.25Z"/><path fill="#05B862" d="M10.625 18.125h.625v1.625h-.625v-1.625Z"/><path fill="#05B861" d="M9.563 18.125h.624v1.625h-.624v-1.625Z"/><path fill="#05B862" d="M10.625 16h.625v1.625h-.625V16Z"/><path fill="#05B861" d="M9.563 16h.624v1.625h-.624V16Z"/></g><defs><clipPath id="a"><path fill="#fff" d="M8 8h16v16H8z"/></clipPath></defs></svg>