<svg width="32" height="32" fill="none" xmlns="http://www.w3.org/2000/svg"><rect width="32" height="32" rx="4" fill="#05B862"/><circle cx="16" cy="16" r="11.5" fill="#FAFAFA" stroke="#fff"/><circle cx="16" cy="16" r="11.5" stroke="#fff"/><path d="M19.27 6.792h-6.333a1.98 1.98 0 0 0-1.979 1.979v13.458a1.98 1.98 0 0 0 1.98 1.98h6.332a1.98 1.98 0 0 0 1.98-1.98V8.771a1.98 1.98 0 0 0-1.98-1.98Zm-3.166 16.625c-.657 0-1.188-.53-1.188-1.188 0-.657.53-1.188 1.188-1.188.657 0 1.187.53 1.187 1.188 0 .657-.53 1.188-1.187 1.188Zm3.562-3.167h-7.125V9.166h7.125V20.25Z" fill="#05B862"/></svg>