<svg xmlns="http://www.w3.org/2000/svg" width="24" height="24" fill="none"><g fill="#fff" clip-path="url(#a)"><path d="M22.357 19.618c-2.55-1.152-2.647-6.096-2.65-6.22V10.08c0-3.193-1.95-5.938-4.722-7.106A2.989 2.989 0 0 0 12 0a2.989 2.989 0 0 0-2.985 2.974c-2.772 1.17-4.723 3.914-4.723 7.107v3.316c-.001.125-.099 5.069-2.65 6.22a.677.677 0 0 0 .28 1.294h6.465c.133.73.478 1.408 1.005 1.957.7.73 1.627 1.132 2.608 1.132.981 0 1.908-.402 2.608-1.132a3.804 3.804 0 0 0 1.005-1.957h6.465a.677.677 0 0 0 .28-1.293Zm-3.36-2.369c.269.813.648 1.63 1.187 2.309H3.817c.538-.68.917-1.496 1.186-2.309h13.994ZM12 1.354c.743 0 1.371.499 1.568 1.18a7.712 7.712 0 0 0-3.136 0c.197-.681.825-1.18 1.568-1.18ZM5.646 13.4v-3.32A6.361 6.361 0 0 1 12 3.725a6.361 6.361 0 0 1 6.354 6.354v3.327c.001.102.017 1.172.287 2.489H5.359c.27-1.319.286-2.39.287-2.495ZM12 22.646c-1.033 0-1.934-.744-2.224-1.735h4.448c-.29.99-1.19 1.735-2.224 1.735Z"/><path d="M12 4.676a5.287 5.287 0 0 0-5.28 5.28.677.677 0 0 0 1.353 0A3.932 3.932 0 0 1 12 6.03a.677.677 0 1 0 0-1.353Z"/></g><defs><clipPath id="a"><path fill="#fff" d="M0 0h24v24H0z"/></clipPath></defs></svg>