<svg width="16" height="21" fill="none" xmlns="http://www.w3.org/2000/svg"><path d="M15.84 3.955 11.737.135A.502.502 0 0 0 11.395 0H.504A.504.504 0 0 0 0 .504v19.243c0 .278.226.504.504.504h14.992a.504.504 0 0 0 .504-.504V4.324a.504.504 0 0 0-.16-.369Zm-12.8 14.51a.715.715 0 1 1 1.429.001.715.715 0 0 1-1.43-.002Zm3.661 0a.715.715 0 0 1 1.428 0 .714.714 0 0 1-1.428 0Zm8.3.779-6.446-.006a1.379 1.379 0 1 0-2.518-.773c0 .285.088.55.237.77l-1.378-.001a1.38 1.38 0 1 0-2.52-.77c0 .284.085.548.233.768L1 19.23l.013-6.382 1.01 4.04H8.88L12.2 9.25h1.002a.498.498 0 1 0 0-.996h-1.654L8.227 15.89H2.799l-.83-3.32h5.173a.498.498 0 1 0 0-.997H1.014V1.006h9.399v3.78c0 .278.225.503.503.503H15v13.955Z" fill="#000"/></svg>