<svg width="32" height="32" fill="none" xmlns="http://www.w3.org/2000/svg"><rect width="32" height="32" rx="4" fill="#05B862"/><circle cx="16" cy="16" r="11.5" fill="#FAFAFA" stroke="#fff"/><circle cx="16" cy="16" r="11.5" stroke="#fff"/><g clip-path="url(#a)" fill-rule="evenodd" clip-rule="evenodd" fill="#05B862"><path d="M16.595 14.072A4.078 4.078 0 0 0 15.784 6a4.076 4.076 0 0 0-.812 8.072.83.83 0 0 0-.004.081v7.338a.815.815 0 0 0 1.63 0v-7.338a.8.8 0 0 0-.003-.08Zm-.811-1.544a2.451 2.451 0 1 1 0-4.903 2.451 2.451 0 0 1 0 4.903Z"/><path d="M9.9 19.289c.687-.525 1.588-.886 2.624-1.011.447-.054.814.317.814.767s-.368.807-.813.879c-.687.111-1.24.36-1.635.66-.548.419-.74.89-.714 1.256.025.347.264.848 1.13 1.296.872.453 2.308.8 4.477.8 2.17 0 3.605-.347 4.479-.8.865-.448 1.104-.95 1.129-1.296.026-.367-.166-.837-.714-1.256-.394-.3-.949-.549-1.636-.66-.444-.072-.812-.429-.812-.88 0-.45.367-.82.814-.766 1.035.125 1.937.486 2.624 1.01.854.653 1.426 1.608 1.35 2.668-.077 1.08-.806 2.006-2.005 2.628-1.19.617-2.914.983-5.229.983-2.314 0-4.038-.366-5.228-.983-1.2-.622-1.928-1.547-2.005-2.628-.076-1.06.496-2.015 1.35-2.667Z"/></g><defs><clipPath id="a"><path fill="#fff" transform="translate(6 6)" d="M0 0h19.567v19.567H0z"/></clipPath></defs></svg>