<svg xmlns="http://www.w3.org/2000/svg" width="32" height="32" fill="none"><rect width="32" height="32" fill="#05B862" rx="4"/><circle cx="16" cy="16" r="11.5" fill="#FAFAFA" stroke="#fff"/><circle cx="16" cy="16" r="11.5" stroke="#fff"/><path fill="#05B862" d="m23.87 20.676-1.04-.7-.807-1.069.756-1.056-.63-.583-.757-2.636.55-1.55-.277-1.103-3.619-1.453-1.052.276-.5.58-.7.19-.163.537-1.467.24-2.234-1.106-.929-2.14-1.087.753-.816-.161L8.66 9 8 9.17l.383 2.71.957 1.61-.408.45-.041 1.209.424.715 1.08.929.029 1.13.783 1.085 1.277-.217 1.33 2.411 1.93 1.154.991.2 1.394-.746.622.336.315 1.081 1.788.275 1.66.133.542-.114.15-.992.794-.474-.13-1.38Z"/></svg>