<svg width="32" height="32" fill="none" xmlns="http://www.w3.org/2000/svg"><rect width="32" height="32" rx="4" fill="#05B862"/><circle cx="16" cy="16" r="11.5" fill="#FAFAFA" stroke="#fff"/><circle cx="16" cy="16" r="11.5" stroke="#fff"/><g clip-path="url(#a)"><path d="m9.523 10.397.81-.9A.899.899 0 0 1 11 9.2h5.5v3.6h-5.5a.9.9 0 0 1-.666-.297l-.81-.9a.9.9 0 0 1 0-1.206Zm13.95 4.806-.81.9a.9.9 0 0 1-.666.297h-5.499v-3.6h5.5a.897.897 0 0 1 .665.297l.81.9a.9.9 0 0 1 0 1.206Z" fill="#fff"/><path d="M16.498 12.8V9.2H11a.9.9 0 0 0-.666.297l-.81.9a.9.9 0 0 0 0 1.206l.81.9A.9.9 0 0 0 11 12.8h5.5Zm0 0v3.6h5.5a.9.9 0 0 0 .665-.297l.81-.9a.9.9 0 0 0 0-1.206l-.81-.9a.902.902 0 0 0-.666-.297h-5.499Zm0 10.8V7.4m-2.7 16.2h5.4" stroke="#05B862" stroke-width="1.8" stroke-linecap="round" stroke-linejoin="round"/></g><defs><clipPath id="a"><path fill="#fff" transform="translate(7.5 6.5)" d="M0 0h18v18H0z"/></clipPath></defs></svg>